# File exported by Houdini 21.0.440 (www.sidefx.com)
# 63 points
# 366 vertices
# 122 primitives
# Bounds: [-0.122762084, -0.210251465, -0.0406933166] to [0.116863303, 0.210438445, 0.0375689119]
g 
v -0.0955110192 -0.174107209 -0.0340542719
v 0.0934362859 0.186156735 0.0358834788
v 0.083461158 0.160645396 0.0296803489
v 0.0098288646 0.0120977024 0.0129032899
v 0.0113486722 0.0215745065 -0.0157991815
v -0.111877263 -0.185231104 -0.006066164
v -0.075327836 -0.119728416 -0.0252785757
v -0.0547663197 -0.199131548 -0.020396892
v 0.0626078099 0.124807946 0.016100768
v 0.0361278169 0.0748576671 0.0185526758
v -0.0405326225 -0.198801965 -0.0406933166
v -0.0371013321 -0.172595471 -0.0344613381
v -0.0193234961 -0.0155567219 -0.0110807372
v 0.0127151785 0.0078688832 -0.0145745259
v -0.0649568439 -0.195553869 -0.0325428955
v -0.08565256 -0.189587966 -0.00782294013
v -0.110573255 -0.17150268 0.00954241678
v -0.0459964424 -0.122106113 -0.0291893017
v -0.0675753281 -0.210251465 -0.023985127
v -0.0804900527 -0.185611457 -0.0233545471
v -0.0900136903 -0.182375565 0.00394135481
v -0.10985861 -0.182975948 -0.0242734049
v -0.0523195453 -0.179421842 -0.0350430459
v -0.0713690519 -0.170052543 -0.0106917908
v -0.0981725454 -0.16245918 0.00985258631
v -0.0425784364 -0.1029296 -0.00612386269
v -0.0379704572 -0.0715196803 -0.0271844771
v -0.0594402328 -0.184912667 0.00373894093
v -0.040833611 -0.125387445 -0.0198069103
v -0.0492343381 -0.178993478 -0.0119322399
v -0.108628243 -0.151824772 -0.0178823303
v 0.0211829748 0.0082858447 -0.00644919742
v -0.00626058597 0.0203969609 -0.00107604428
v -0.122762084 -0.165005237 -0.0195781849
v -0.0334478132 -0.189335719 -0.0217361785
v -0.0778847709 -0.165968627 -0.00848486647
v -0.0636921525 -0.150490314 -0.0264899749
v -0.0635506138 -0.121425912 -0.0128348451
v -0.0603884868 -0.203797504 0.00113570655
v -0.0110140704 -0.0475840271 -0.0183509924
v 0.111997359 0.199268758 0.000908564078
v 0.0671615228 0.139637634 -0.0134827318
v 0.093205072 0.157128528 -0.0333755538
v 0.0688778162 0.175732046 0.0375689119
v 0.116673 0.180962265 -0.0175705943
v 0.0297234189 0.090149872 -0.00759501662
v 0.0974734351 0.1912871 -0.0255318712
v 0.102346264 0.162213743 0.0306735095
v 0.0740877092 0.127089307 0.0125583336
v 0.0847892463 0.133457914 -0.00298078335
v 0.116863303 0.187869817 0.0214804597
v 0.0471218005 0.174099505 -0.00590344146
v 0.087201193 0.210438445 0.00519330706
v 0.0649371445 0.112599254 -0.0107605141
v 0.0741761476 0.18099466 -0.0299024768
v 0.0466626063 0.147279903 -0.00153430365
v 0.114678547 0.150729597 -0.00331241987
v 0.0513863452 0.131823882 0.0240750201
v 0.102067351 0.200995117 0.0243078098
v 0.0541461557 0.196041271 0.0226618685
v 0.0213738643 0.0759529993 0.00294220517
v 0.0746969283 0.206721157 0.0340224318
v 0.0681478307 0.196809605 -0.00556907151
vt 0.927832842 0.842748344 0
vt 0.928455949 0.824543536 0
vt 0.945744514 0.817295671 0
vt 0.935936511 0.803438008 0
vt 0.906153142 0.809459567 0
vt 0.914878368 0.794297755 0
vt 0.917639256 0.816425204 0
vt 0.910970867 0.828732669 0
vt 0.89527601 0.794284344 0
vt 0.875810683 0.797617316 0
vt 0.89259553 0.89049226 0
vt 0.847772539 0.870005727 0
vt 0.831923425 0.855168283 0
vt 0.895481944 0.861939669 0
vt 0.756154358 0.830793977 0
vt 0.807855904 0.822263598 0
vt 0.861077309 0.828710198 0
vt 0.87875545 0.90968895 0
vt 0.911628664 0.904185116 0
vt 0.89395839 0.907831192 0
vt 0.924762487 0.899145484 0
vt 0.91369468 0.888108969 0
vt 0.930176556 0.874114752 0
vt 0.846196592 0.804210722 0
vt 0.899150729 0.83474791 0
vt 0.904022276 0.922526717 0
vt 0.855762124 0.845527291 0
vt 0.722248673 0.834641695 0
vt 0.718016207 0.817068696 0
vt 0.905385017 0.880823314 0
vt 0.920910239 0.863312244 0
vt 0.722602665 0.852515817 0
vt 0.926535368 0.909915745 0
vt 0.731595457 0.878688812 0
vt 0.72203362 0.870444775 0
vt 0.777032435 0.877383113 0
vt 0.842886388 0.881659806 0
vt 0.894930482 0.772387207 0
vt 0.917274535 0.849704385 0
vt 0.775329769 0.808818042 0
vt 0.885987639 0.760291159 0
vt 0.906719208 0.756198943 0
vt 0.914209664 0.7758497 0
vt 0.73054719 0.812122166 0
vt 0.94146806 0.887918055 0
vt 0.933022618 0.906166553 0
vt 0.446713448 0.031986393 0
vt 0.429021031 0.0319106095 0
vt 0.463716507 -0.00104947586 0
vt 0.517786682 0.0384692699 0
vt 0.52592355 0.0203414187 0
vt 0.568991721 0.0471609086 0
vt 0.440201074 0.0752221048 0
vt 0.459986061 0.0733517036 0
vt 0.457039565 0.0560191236 0
vt 0.510510921 0.116110407 0
vt 0.521363199 0.0966667682 0
vt 0.535618484 0.117807969 0
vt 0.477695942 0.142442554 0
vt 0.523535132 0.133277163 0
vt 0.474564612 0.0639886856 0
vt 0.475680113 0.0784149617 0
vt 0.636937559 0.0968773961 0
vt 0.57644403 0.0779462978 0
vt 0.637278199 0.0793785974 0
vt 0.497517645 0.0355036631 0
vt 0.458374381 0.0858569518 0
vt 0.527829349 0.0692581907 0
vt 0.486148775 0.0537563823 0
vt 0.471419215 0.0408813059 0
vt 0.640410006 0.106701173 0
vt 0.528184175 0.0861914232 0
vt 0.496167421 0.0844994932 0
vt 0.493821591 0.070258908 0
vt 0.477133334 0.114786774 0
vt 0.446558237 0.114396237 0
vt 0.631131113 0.0409753881 0
vt 0.637425303 0.0607610792 0
vt 0.483810544 0.0932529271 0
vt 0.469117701 0.0229026079 0
vt 0.625218809 0.115066089 0
vt 0.582360387 0.059420675 0
vn -0.622133374 -0.0905188471 0.842104852
vn -0.561589479 -0.85296762 0.154831544
vn 0.137236655 -0.877990901 0.673140109
vn -0.200083494 -0.998862326 0.0757791996
vn 0.223804623 -0.18794775 -1.00238931
vn -0.168500423 0.0875202045 -0.890189409
vn 0.223804623 -0.18794775 -1.00238931
vn -0.200083494 -0.998862326 0.0757791996
vn -0.490553379 -0.787522137 -0.601364195
vn -0.561589479 -0.85296762 0.154831544
vn -0.622133374 -0.0905188471 0.842104852
vn -0.978883088 0.251866817 -0.284969926
vn -0.0523016788 0.0793427452 -0.878981054
vn 0.223804623 -0.18794775 -1.00238931
vn -0.251918077 -0.177771345 -0.942851603
vn 0.560171008 0.16892086 0.647264659
vn 0.905256391 -0.340410382 0.180662528
vn 0.258934647 -0.202237651 0.923897445
vn 0.258934647 -0.202237651 0.923897445
vn 0.0391310193 0.0320055299 0.929515004
vn 0.560171008 0.16892086 0.647264659
vn -0.87103498 0.460106164 -0.382698566
vn -0.0861257315 0.141799062 -1.01534224
vn -0.477260113 0.4046731 -0.301884681
vn 0.905256391 -0.340410382 0.180662528
vn 0.560171008 0.16892086 0.647264659
vn 0.841346562 0.547042489 -0.203089401
vn -0.0563365966 -0.929012418 0.377810001
vn 0.779410839 -0.270781398 0.578549087
vn 0.560171008 0.16892086 0.647264659
vn -0.0883268043 -0.86869055 -0.262412608
vn 0.117489085 -0.764515758 0.604587495
vn -0.471599132 -0.884074152 0.218523115
vn 0.117489085 -0.764515758 0.604587495
vn -0.0883268043 -0.86869055 -0.262412608
vn 0.560171008 0.16892086 0.647264659
vn -0.0861257315 0.141799062 -1.01534224
vn 0.298651874 -0.0511721969 -0.973342657
vn -0.251918077 -0.177771345 -0.942851603
vn -0.622133374 -0.0905188471 0.842104852
vn -0.146894053 0.676617742 0.664444208
vn -0.978883088 0.251866817 -0.284969926
vn 0.779410839 -0.270781398 0.578549087
vn -0.0563365966 -0.929012418 0.377810001
vn 0.396748394 -0.822515011 -0.513077676
vn -0.477260113 0.4046731 -0.301884681
vn -0.146894053 0.676617742 0.664444208
vn -0.554956734 0.202157497 0.861497283
vn -0.168500423 0.0875202045 -0.890189409
vn 0.223804623 -0.18794775 -1.00238931
vn -0.0523016788 0.0793427452 -0.878981054
vn -0.251918077 -0.177771345 -0.942851603
vn 0.223804623 -0.18794775 -1.00238931
vn -0.477260113 0.4046731 -0.301884681
vn -1.04854 0.472294897 0.062215209
vn 0.0146033568 0.0462431423 -1.06265771
vn -0.87103498 0.460106164 -0.382698566
vn 0.779410839 -0.270781398 0.578549087
vn 0.841346562 0.547042489 -0.203089401
vn 0.560171008 0.16892086 0.647264659
vn 0.841346562 0.547042489 -0.203089401
vn 0.779410839 -0.270781398 0.578549087
vn 0.396748394 -0.822515011 -0.513077676
vn -0.146894053 0.676617742 0.664444208
vn 0.0391310193 0.0320055299 0.929515004
vn -0.554956734 0.202157497 0.861497283
vn 0.560171008 0.16892086 0.647264659
vn 0.0391310193 0.0320055299 0.929515004
vn 0.05174293 0.519323528 0.91527611
vn 0.092260927 -0.245815009 0.933805346
vn 0.05174293 0.519323528 0.91527611
vn 0.0391310193 0.0320055299 0.929515004
vn -0.554956734 0.202157497 0.861497283
vn 0.258934647 -0.202237651 0.923897445
vn 0.17981717 -0.208338514 0.994814157
vn -0.0883268043 -0.86869055 -0.262412608
vn 0.392392755 -0.677124977 -0.627099276
vn -0.0563365966 -0.929012418 0.377810001
vn -0.0883268043 -0.86869055 -0.262412608
vn -0.0563365966 -0.929012418 0.377810001
vn 0.560171008 0.16892086 0.647264659
vn 0.460308224 -0.158399761 -0.959103763
vn 0.896116316 -0.416471422 -0.109469198
vn 0.579429924 -0.179504082 -0.79949367
vn -0.477260113 0.4046731 -0.301884681
vn -1.04854 0.472294897 0.062215209
vn -0.87103498 0.460106164 -0.382698566
vn -0.477260113 0.4046731 -0.301884681
vn 0.223804623 -0.18794775 -1.00238931
vn -0.978883088 0.251866817 -0.284969926
vn 0.137236655 -0.877990901 0.673140109
vn -0.490553379 -0.787522137 -0.601364195
vn -0.200083494 -0.998862326 0.0757791996
vn 0.05174293 0.519323528 0.91527611
vn 0.117489085 -0.764515758 0.604587495
vn 0.560171008 0.16892086 0.647264659
vn -0.554956734 0.202157497 0.861497283
vn -1.04854 0.472294897 0.062215209
vn -0.477260113 0.4046731 -0.301884681
vn 0.905256391 -0.340410382 0.180662528
vn 0.310036957 -0.100528367 -1.00384796
vn 0.896116316 -0.416471422 -0.109469198
vn 0.05174293 0.519323528 0.91527611
vn 0.092260927 -0.245815009 0.933805346
vn -0.471599132 -0.884074152 0.218523115
vn 0.17981717 -0.208338514 0.994814157
vn 0.258934647 -0.202237651 0.923897445
vn 0.905256391 -0.340410382 0.180662528
vn -0.251918077 -0.177771345 -0.942851603
vn -0.530332446 0.37807855 -0.756870806
vn -0.0523016788 0.0793427452 -0.878981054
vn -0.554956734 0.202157497 0.861497283
vn 0.17981717 -0.208338514 0.994814157
vn -1.04854 0.472294897 0.062215209
vn 0.396748394 -0.822515011 -0.513077676
vn -0.0563365966 -0.929012418 0.377810001
vn 0.392392755 -0.677124977 -0.627099276
vn -0.146894053 0.676617742 0.664444208
vn -0.477260113 0.4046731 -0.301884681
vn -0.978883088 0.251866817 -0.284969926
vn -0.622133374 -0.0905188471 0.842104852
vn 0.374570519 0.707778156 0.518161952
vn -0.146894053 0.676617742 0.664444208
vn -0.0861257315 0.141799062 -1.01534224
vn 0.493854016 -0.110910222 -0.866144598
vn 0.298651874 -0.0511721969 -0.973342657
vn 0.579429924 -0.179504082 -0.79949367
vn 0.896116316 -0.416471422 -0.109469198
vn 0.310036957 -0.100528367 -1.00384796
vn 0.092260927 -0.245815009 0.933805346
vn 0.374570519 0.707778156 0.518161952
vn -0.622133374 -0.0905188471 0.842104852
vn 0.288487017 0.403944343 -0.926083982
vn -0.063047193 -0.46299988 -0.872732878
vn -0.530332446 0.37807855 -0.756870806
vn -0.561589479 -0.85296762 0.154831544
vn -0.490553379 -0.787522137 -0.601364195
vn 0.137236655 -0.877990901 0.673140109
vn -0.490553379 -0.787522137 -0.601364195
vn -0.561589479 -0.85296762 0.154831544
vn -0.978883088 0.251866817 -0.284969926
vn -0.0523016788 0.0793427452 -0.878981054
vn -0.530332446 0.37807855 -0.756870806
vn -0.168500423 0.0875202045 -0.890189409
vn -0.146894053 0.676617742 0.664444208
vn 0.092260927 -0.245815009 0.933805346
vn 0.0391310193 0.0320055299 0.929515004
vn 0.374570519 0.707778156 0.518161952
vn 0.092260927 -0.245815009 0.933805346
vn -0.146894053 0.676617742 0.664444208
vn 0.841346562 0.547042489 -0.203089401
vn 0.310036957 -0.100528367 -1.00384796
vn 0.905256391 -0.340410382 0.180662528
vn 0.184240654 -0.513114214 -0.769165933
vn -0.530332446 0.37807855 -0.756870806
vn -0.063047193 -0.46299988 -0.872732878
vn 0.288487017 0.403944343 -0.926083982
vn -0.251918077 -0.177771345 -0.942851603
vn 0.298651874 -0.0511721969 -0.973342657
vn -0.0861257315 0.141799062 -1.01534224
vn 0.0146033568 0.0462431423 -1.06265771
vn 0.392253965 -0.126498774 -0.991794944
vn 0.0146033568 0.0462431423 -1.06265771
vn -0.0861257315 0.141799062 -1.01534224
vn -0.87103498 0.460106164 -0.382698566
vn -0.471599132 -0.884074152 0.218523115
vn 0.117489085 -0.764515758 0.604587495
vn 0.05174293 0.519323528 0.91527611
vn 0.905256391 -0.340410382 0.180662528
vn 0.896116316 -0.416471422 -0.109469198
vn 0.17981717 -0.208338514 0.994814157
vn -0.0883268043 -0.86869055 -0.262412608
vn -0.609062016 -0.354200065 -0.785608113
vn -0.277574718 -0.089120999 -0.873309076
vn -0.609062016 -0.354200065 -0.785608113
vn -0.0883268043 -0.86869055 -0.262412608
vn -0.471599132 -0.884074152 0.218523115
vn 0.258934647 -0.202237651 0.923897445
vn -0.554956734 0.202157497 0.861497283
vn 0.0391310193 0.0320055299 0.929515004
vn 0.288487017 0.403944343 -0.926083982
vn -0.530332446 0.37807855 -0.756870806
vn -0.251918077 -0.177771345 -0.942851603
vn 0.493854016 -0.110910222 -0.866144598
vn -0.0861257315 0.141799062 -1.01534224
vn 0.392253965 -0.126498774 -0.991794944
vn -0.530332446 0.37807855 -0.756870806
vn 0.184240654 -0.513114214 -0.769165933
vn -0.168500423 0.0875202045 -0.890189409
vn -0.978883088 0.251866817 -0.284969926
vn 0.223804623 -0.18794775 -1.00238931
vn -0.490553379 -0.787522137 -0.601364195
vn -0.0861257315 0.141799062 -1.01534224
vn -0.251918077 -0.177771345 -0.942851603
vn -0.477260113 0.4046731 -0.301884681
vn 0.2657471 0.635812521 -0.823920071
vn 0.767975628 0.341285706 -0.609660447
vn -0.0889476538 -0.51249522 -0.855762064
vn -0.887139499 0.178242415 -0.448391885
vn -0.283261716 0.0678309277 -0.971360803
vn -0.69406265 0.350999683 -0.663298368
vn 0.767975628 0.341285706 -0.609660447
vn 0.2657471 0.635812521 -0.823920071
vn 0.660093844 0.76857692 -0.201459244
vn 0.420459658 0.684210002 0.638965726
vn 0.660093844 0.76857692 -0.201459244
vn -0.104939349 1.02013731 -0.146669656
vn 0.823757231 -0.668366134 -0.110565186
vn 0.519258857 -0.482810646 0.754596055
vn 0.561696112 -0.314353913 -0.823012412
vn 0.0647089854 -0.412628382 -0.985239029
vn 0.823757231 -0.668366134 -0.110565186
vn -0.170145556 -0.0908440202 -1.01997852
vn -0.0734411702 0.954149365 0.429355383
vn 0.00675442722 0.413072556 0.792538702
vn 0.420459658 0.684210002 0.638965726
vn 0.953188837 -0.446637064 0.0294421706
vn -0.0364534184 -0.0985986665 0.963141918
vn 0.240688115 -0.207249135 0.966269255
vn -0.283261716 0.0678309277 -0.971360803
vn -0.887139499 0.178242415 -0.448391885
vn -0.817627132 0.0876210928 -0.507866204
vn 0.858674943 0.229134589 0.593942642
vn 0.660093844 0.76857692 -0.201459244
vn 0.420459658 0.684210002 0.638965726
vn -0.817627132 0.0876210928 -0.507866204
vn -0.601728201 0.00393319083 0.83314687
vn -0.916106522 0.36813426 0.340571344
vn -0.817627132 0.0876210928 -0.507866204
vn -0.916106522 0.36813426 0.340571344
vn -0.486918539 0.760082543 -0.469501376
vn 0.561696112 -0.314353913 -0.823012412
vn 0.377817988 -0.0189053658 -0.930438399
vn -0.170145556 -0.0908440202 -1.01997852
vn 0.953188837 -0.446637064 0.0294421706
vn 0.553412676 -0.350603878 0.751267314
vn -0.0364534184 -0.0985986665 0.963141918
vn 0.553412676 -0.350603878 0.751267314
vn -0.467157483 -0.193666548 0.881816626
vn -0.132610261 -0.259430587 0.97734952
vn 0.758182108 -0.736051738 0.143544123
vn 0.856804907 0.280788958 -0.645117521
vn 0.858674943 0.229134589 0.593942642
vn -0.69406265 0.350999683 -0.663298368
vn -0.0804210305 0.0907405913 -1.02383947
vn -0.931971371 0.389748424 0.231371
vn 0.856804907 0.280788958 -0.645117521
vn 0.758182108 -0.736051738 0.143544123
vn 0.0647089854 -0.412628382 -0.985239029
vn 0.00675442722 0.413072556 0.792538702
vn 0.858674943 0.229134589 0.593942642
vn 0.420459658 0.684210002 0.638965726
vn 0.823757231 -0.668366134 -0.110565186
vn 0.674667537 -0.631094754 0.462845594
vn 0.519258857 -0.482810646 0.754596055
vn 0.858674943 0.229134589 0.593942642
vn 0.856804907 0.280788958 -0.645117521
vn 0.660093844 0.76857692 -0.201459244
vn -0.513353705 0.295973957 -0.847867966
vn -0.486918539 0.760082543 -0.469501376
vn -0.104939349 1.02013731 -0.146669656
vn 0.0647089854 -0.412628382 -0.985239029
vn 0.758182108 -0.736051738 0.143544123
vn 0.823757231 -0.668366134 -0.110565186
vn -0.601728201 0.00393319083 0.83314687
vn -0.887139499 0.178242415 -0.448391885
vn -0.69406265 0.350999683 -0.663298368
vn 0.0870529786 0.0816323161 -0.982280791
vn -0.170145556 -0.0908440202 -1.01997852
vn 0.377817988 -0.0189053658 -0.930438399
vn -0.916106522 0.36813426 0.340571344
vn -0.132610261 -0.259430587 0.97734952
vn -0.0734411702 0.954149365 0.429355383
vn -0.931971371 0.389748424 0.231371
vn -0.908080578 0.387394667 0.326880097
vn -0.69406265 0.350999683 -0.663298368
vn 0.674667537 -0.631094754 0.462845594
vn 0.858674943 0.229134589 0.593942642
vn 0.00675442722 0.413072556 0.792538702
vn 0.00675442722 0.413072556 0.792538702
vn -0.467157483 -0.193666548 0.881816626
vn 0.674667537 -0.631094754 0.462845594
vn -0.908080578 0.387394667 0.326880097
vn -0.931971371 0.389748424 0.231371
vn -0.0364534184 -0.0985986665 0.963141918
vn -0.916106522 0.36813426 0.340571344
vn -0.0734411702 0.954149365 0.429355383
vn -0.486918539 0.760082543 -0.469501376
vn 0.377817988 -0.0189053658 -0.930438399
vn 0.561696112 -0.314353913 -0.823012412
vn 0.953188837 -0.446637064 0.0294421706
vn 0.953188837 -0.446637064 0.0294421706
vn 0.561696112 -0.314353913 -0.823012412
vn 0.519258857 -0.482810646 0.754596055
vn -0.0889476538 -0.51249522 -0.855762064
vn -0.283261716 0.0678309277 -0.971360803
vn -0.817627132 0.0876210928 -0.507866204
vn -0.104939349 1.02013731 -0.146669656
vn -0.0734411702 0.954149365 0.429355383
vn 0.420459658 0.684210002 0.638965726
vn -0.170145556 -0.0908440202 -1.01997852
vn 0.823757231 -0.668366134 -0.110565186
vn 0.561696112 -0.314353913 -0.823012412
vn 0.674667537 -0.631094754 0.462845594
vn 0.758182108 -0.736051738 0.143544123
vn 0.858674943 0.229134589 0.593942642
vn -0.601728201 0.00393319083 0.83314687
vn -0.69406265 0.350999683 -0.663298368
vn -0.908080578 0.387394667 0.326880097
vn 0.519258857 -0.482810646 0.754596055
vn 0.674667537 -0.631094754 0.462845594
vn -0.467157483 -0.193666548 0.881816626
vn -0.132610261 -0.259430587 0.97734952
vn 0.00675442722 0.413072556 0.792538702
vn -0.0734411702 0.954149365 0.429355383
vn -0.486918539 0.760082543 -0.469501376
vn -0.513353705 0.295973957 -0.847867966
vn -0.817627132 0.0876210928 -0.507866204
vn -0.104939349 1.02013731 -0.146669656
vn -0.486918539 0.760082543 -0.469501376
vn -0.0734411702 0.954149365 0.429355383
vn -0.908080578 0.387394667 0.326880097
vn -0.0364534184 -0.0985986665 0.963141918
vn -0.601728201 0.00393319083 0.83314687
vn -0.132610261 -0.259430587 0.97734952
vn -0.467157483 -0.193666548 0.881816626
vn 0.00675442722 0.413072556 0.792538702
vn -0.887139499 0.178242415 -0.448391885
vn -0.601728201 0.00393319083 0.83314687
vn -0.817627132 0.0876210928 -0.507866204
vn 0.519258857 -0.482810646 0.754596055
vn 0.553412676 -0.350603878 0.751267314
vn 0.953188837 -0.446637064 0.0294421706
vn -0.817627132 0.0876210928 -0.507866204
vn -0.513353705 0.295973957 -0.847867966
vn -0.0889476538 -0.51249522 -0.855762064
vn -0.601728201 0.00393319083 0.83314687
vn -0.132610261 -0.259430587 0.97734952
vn -0.916106522 0.36813426 0.340571344
vn -0.931971371 0.389748424 0.231371
vn 0.240688115 -0.207249135 0.966269255
vn -0.0364534184 -0.0985986665 0.963141918
vn 0.823757231 -0.668366134 -0.110565186
vn 0.758182108 -0.736051738 0.143544123
vn 0.674667537 -0.631094754 0.462845594
vn -0.513353705 0.295973957 -0.847867966
vn -0.104939349 1.02013731 -0.146669656
vn 0.2657471 0.635812521 -0.823920071
vn 0.2657471 0.635812521 -0.823920071
vn -0.0889476538 -0.51249522 -0.855762064
vn -0.513353705 0.295973957 -0.847867966
vn -0.0804210305 0.0907405913 -1.02383947
vn -0.69406265 0.350999683 -0.663298368
vn -0.283261716 0.0678309277 -0.971360803
vn -0.0364534184 -0.0985986665 0.963141918
vn 0.553412676 -0.350603878 0.751267314
vn -0.601728201 0.00393319083 0.83314687
vn 0.660093844 0.76857692 -0.201459244
vn 0.2657471 0.635812521 -0.823920071
vn -0.104939349 1.02013731 -0.146669656
vn -0.601728201 0.00393319083 0.83314687
vn 0.553412676 -0.350603878 0.751267314
vn -0.132610261 -0.259430587 0.97734952
vn 0.553412676 -0.350603878 0.751267314
vn 0.519258857 -0.482810646 0.754596055
vn -0.467157483 -0.193666548 0.881816626
g group1 skel
f 17/1/1 6/2/2 21/3/3
f 16/4/4 1/5/5 20/6/6
f 1/5/7 16/4/8 22/7/9
f 6/2/10 17/1/11 34/8/12
f 24/9/13 1/5/14 37/10/15
f 30/11/16 29/12/17 26/13/18
f 26/13/19 36/14/20 30/11/21
f 13/15/22 27/16/23 7/17/24
f 29/12/25 30/11/26 12/18/27
f 8/19/28 35/20/29 30/11/30
f 19/21/31 39/22/32 16/23/33
f 39/22/34 19/21/35 30/11/36
f 27/16/37 18/24/38 37/10/39
f 17/1/40 31/25/41 34/8/42
f 35/20/43 8/19/44 11/26/45
f 7/17/46 31/25/47 38/27/48
f 20/6/49 1/5/50 24/9/51
f 37/10/52 1/5/53 7/17/54
f 33/28/55 5/29/56 13/15/57
f 35/20/58 12/18/59 30/11/60
f 12/18/61 35/20/62 11/26/63
f 31/25/64 36/14/65 38/27/66
f 30/11/67 36/14/68 28/30/69
f 21/31/70 28/30/71 36/14/72
f 38/27/73 26/13/74 4/32/75
f 19/21/76 15/33/77 8/19/78
f 19/21/79 8/19/80 30/11/81
f 14/34/82 32/35/83 40/36/84
f 7/17/85 33/28/86 13/15/87
f 7/17/88 1/5/89 34/8/90
f 21/3/91 22/7/92 16/4/93
f 28/30/94 39/22/95 30/11/96
f 38/27/97 33/28/98 7/17/99
f 29/12/100 18/37/101 32/35/102
f 28/30/103 21/31/104 16/23/105
f 4/32/106 26/13/107 29/12/108
f 37/10/109 23/38/110 24/9/111
f 38/27/112 4/32/113 33/28/114
f 11/26/115 8/19/116 15/33/117
f 31/25/118 7/17/119 34/8/120
f 17/1/121 25/39/122 31/25/123
f 27/16/124 40/40/125 18/24/126
f 40/36/127 32/35/128 18/37/129
f 21/31/130 25/39/131 17/1/132
f 12/41/133 11/42/134 23/38/135
f 6/2/136 22/7/137 21/3/138
f 22/7/139 6/2/140 34/8/141
f 24/9/142 23/38/143 20/6/144
f 31/25/145 21/31/146 36/14/147
f 25/39/148 21/31/149 31/25/150
f 12/18/151 18/37/152 29/12/153
f 15/43/154 23/38/155 11/42/156
f 12/41/157 37/10/158 18/24/159
f 27/16/160 5/29/161 14/44/162
f 5/29/163 27/16/164 13/15/165
f 16/23/166 39/22/167 28/30/168
f 29/12/169 32/35/170 4/32/171
f 19/21/172 20/45/173 15/46/174
f 20/45/175 19/21/176 16/23/177
f 26/13/178 38/27/179 36/14/180
f 12/41/181 23/38/182 37/10/183
f 40/40/184 27/16/185 14/44/186
f 23/38/187 15/43/188 20/6/189
f 34/8/190 1/5/191 22/7/192
f 27/16/193 37/10/194 7/17/195
f 47/47/196 45/48/197 43/49/198
f 56/50/199 42/51/200 46/52/201
f 45/48/202 47/47/203 41/53/204
f 59/54/205 41/53/206 53/55/207
f 50/56/208 49/57/209 54/58/210
f 43/59/211 50/56/212 42/60/213
f 62/61/214 2/62/215 59/54/216
f 32/63/217 10/64/218 4/65/219
f 42/51/220 56/50/221 52/66/222
f 51/67/223 41/53/224 59/54/225
f 52/66/226 58/68/227 60/69/228
f 52/66/229 60/69/230 63/70/231
f 54/58/232 14/71/233 42/60/234
f 32/63/235 9/72/236 10/64/237
f 9/72/238 3/73/239 44/74/240
f 57/75/241 45/76/242 51/67/243
f 46/52/244 5/77/245 33/78/246
f 45/76/247 57/75/248 43/59/249
f 2/62/250 51/67/251 59/54/252
f 50/56/253 48/79/254 49/57/255
f 51/67/256 45/76/257 41/53/258
f 55/80/259 63/70/260 53/55/261
f 43/59/262 57/75/263 50/56/264
f 58/68/265 56/50/266 46/52/267
f 5/81/268 42/60/269 14/71/270
f 60/69/271 44/74/272 62/61/273
f 33/78/274 61/82/275 46/52/276
f 48/79/277 51/67/278 2/62/279
f 2/62/280 3/73/281 48/79/282
f 61/82/283 33/78/284 10/64/285
f 60/69/286 62/61/287 63/70/288
f 14/71/289 54/58/290 32/63/291
f 32/63/292 54/58/293 49/57/294
f 43/49/295 42/51/296 52/66/297
f 53/55/298 62/61/299 59/54/300
f 42/60/301 50/56/302 54/58/303
f 48/79/304 57/75/305 51/67/306
f 58/68/307 46/52/308 61/82/309
f 49/57/310 48/79/311 3/73/312
f 44/74/313 2/62/314 62/61/315
f 63/70/316 55/80/317 52/66/318
f 53/55/319 63/70/320 62/61/321
f 61/82/322 10/64/323 58/68/324
f 44/74/325 3/73/326 2/62/327
f 56/50/328 58/68/329 52/66/330
f 49/57/331 9/72/332 32/63/333
f 52/66/334 55/80/335 43/49/336
f 58/68/337 44/74/338 60/69/339
f 33/78/340 4/65/341 10/64/342
f 50/56/343 57/75/344 48/79/345
f 55/80/346 53/55/347 47/47/348
f 47/47/349 43/49/350 55/80/351
f 5/77/352 46/52/353 42/51/354
f 10/64/355 9/72/356 58/68/357
f 41/53/358 47/47/359 53/55/360
f 58/68/361 9/72/362 44/74/363
f 9/72/364 49/57/365 3/73/366
